<?xml version="1.0" encoding="UTF-8"?>
<svg version="1.1" xmlns="http://www.w3.org/2000/svg" width="32" height="32">
<path d="M0 0 C2.375 -0.1875 2.375 -0.1875 5 0 C5.66 0.99 6.32 1.98 7 3 C9.21422114 3.59940657 9.21422114 3.59940657 11.7890625 3.73046875 C12.73007813 3.81103516 13.67109375 3.89160156 14.640625 3.97460938 C16.11789063 4.07999023 16.11789063 4.07999023 17.625 4.1875 C18.61757813 4.26935547 19.61015625 4.35121094 20.6328125 4.43554688 C23.08755383 4.63617477 25.54368191 4.81970031 28 5 C27.67 9.29 27.34 13.58 27 18 C18.585 18.495 18.585 18.495 10 19 C15.28 19.33 20.56 19.66 26 20 C25.34 21.98 24.68 23.96 24 26 C22.68 25.67 21.36 25.34 20 25 C20 24.01 20 23.02 20 22 C17.69 22 15.38 22 13 22 C12.67 23.32 12.34 24.64 12 26 C10.125 25.75 10.125 25.75 8 25 C6.27898465 22.41847698 6 21.15081975 6 18 C4.02 17.67 2.04 17.34 0 17 C-0.33 15.35 -0.66 13.7 -1 12 C0.98 11.67 2.96 11.34 5 11 C2.69 10.67 0.38 10.34 -2 10 C-2 9.34 -2 8.68 -2 8 C0.31 8 2.62 8 5 8 C4.67 6.35 4.34 4.7 4 3 C2.68 3 1.36 3 0 3 C0 2.01 0 1.02 0 0 Z " fill="#2978D0" transform="translate(2,4)"/>
<path d="M0 0 C2.375 -0.1875 2.375 -0.1875 5 0 C5.66 0.99 6.32 1.98 7 3 C9.21422114 3.59940657 9.21422114 3.59940657 11.7890625 3.73046875 C12.73007813 3.81103516 13.67109375 3.89160156 14.640625 3.97460938 C16.11789063 4.07999023 16.11789063 4.07999023 17.625 4.1875 C18.61757813 4.26935547 19.61015625 4.35121094 20.6328125 4.43554688 C23.08782205 4.63619669 25.54313526 4.82378655 28 5 C28 5.99 28 6.98 28 8 C25.45826023 8.02716824 22.91681585 8.04691969 20.375 8.0625 C19.30572266 8.07506836 19.30572266 8.07506836 18.21484375 8.08789062 C14.02655562 8.10710296 10.1271538 7.8267327 6 7 C6 7.99 6 8.98 6 10 C3.36 10 0.72 10 -2 10 C-2 9.34 -2 8.68 -2 8 C0.31 8 2.62 8 5 8 C4.67 6.35 4.34 4.7 4 3 C2.68 3 1.36 3 0 3 C0 2.01 0 1.02 0 0 Z " fill="#3B97E2" transform="translate(2,4)"/>
<path d="M0 0 C0.86963379 0.23771118 0.86963379 0.23771118 1.75683594 0.48022461 C5.21220398 1.28088618 8.71910303 1.37223082 12.25 1.5625 C12.99507812 1.60568359 13.74015625 1.64886719 14.5078125 1.69335938 C16.338349 1.79896725 18.16915176 1.89994201 20 2 C19.34 3.98 18.68 5.96 18 8 C16.68 7.67 15.36 7.34 14 7 C14 6.01 14 5.02 14 4 C11.69 4 9.38 4 7 4 C6.67 5.32 6.34 6.64 6 8 C4.125 7.75 4.125 7.75 2 7 C0.27898465 4.41847698 0 3.15081975 0 0 Z " fill="#B1C5D6" transform="translate(8,22)"/>
<path d="M0 0 C1.65 0 3.3 0 5 0 C5.66 1.32 6.32 2.64 7 4 C4.69 3.67 2.38 3.34 0 3 C0 2.01 0 1.02 0 0 Z " fill="#67B0DB" transform="translate(2,4)"/>
<path d="M0 0 C1.65 0 3.3 0 5 0 C4.67 1.32 4.34 2.64 4 4 C2.68 3.67 1.36 3.34 0 3 C0 2.01 0 1.02 0 0 Z " fill="#5A5D5E" transform="translate(22,26)"/>
<path d="M0 0 C1.65 0 3.3 0 5 0 C4.67 1.32 4.34 2.64 4 4 C2.68 3.67 1.36 3.34 0 3 C0 2.01 0 1.02 0 0 Z " fill="#5A5D5E" transform="translate(10,26)"/>
</svg>
